#!OML:ASF H:\ManfredETheater\Project 1\Capture day 1\Session 1\subject.ASF
:FULLY-SPECIFIED
:DEGREES
198
root 2.80074 17.8324 -25.4239 -176.233 -28.0682 -183.408
lowerback 17.028 -2.89094 1.49816
upperback 1.26803 -3.60629 1.80274
thorax -8.1513 -1.84952 1.95659
lowerneck -12.3896 -7.80004 -8.99201
upperneck 7.40382 -9.42658 4.50016
head 4.86492 -4.62494 2.05091
rclavicle 3.39922e-014 -1.43125e-014
rhumerus -47.6548 -14.2038 -58.1291
rradius 39.8493
rwrist -2.06256
rhand -26.3249 -12.6112
rfingers 7.12502
rthumb 0.231976 -42.5908
lclavicle 3.39922e-014 -1.43125e-014
lhumerus -44.3185 16.3801 68.0036
lradius 69.5075
lwrist -7.85352
lhand -19.9584 -2.49372
lfingers 7.12502
lthumb 6.38001 27.3902
rfemur -24.5175 5.46827 9.68355
rtibia 33.6085
rfoot -6.40305 -4.82046
rtoes -24.2627
lfemur -29.1905 -6.46864 -20.4766
ltibia 40.2932
lfoot -21.0492 -21.8734
ltoes -10.9855
199
root 2.75729 17.8374 -25.468 -176.528 -27.1853 -183.1
lowerback 16.7439 -2.77562 1.47507
upperback 1.21015 -3.45746 1.81964
thorax -8.0568 -1.77547 1.93744
lowerneck -12.4602 -7.66631 -8.82452
upperneck 7.51795 -9.25795 4.37933
head 4.88714 -4.54434 2.00032
rclavicle 1.80894e-014 -8.74653e-015
rhumerus -47.3376 -14.1958 -58.3053
rradius 40.1674
rwrist -2.1237
rhand -26.371 -12.731
rfingers 7.12502
rthumb 0.187415 -42.7107
lclavicle 1.80894e-014 -8.74653e-015
lhumerus -44.6399 16.5837 68.4661
lradius 68.5438
lwrist -8.1099
lhand -19.9518 -2.63164
lfingers 7.12502
lthumb 6.38638 27.2521
rfemur -24.2361 5.8022 9.97932
rtibia 33.3428
rfoot -6.55523 -4.23425
rtoes -24.3875
lfemur -28.7565 -6.99571 -20.2978
ltibia 39.8462
lfoot -20.002 -21.661
ltoes -9.29561
200
root 2.71457 17.8407 -25.5104 -176.833 -26.3159 -182.763
lowerback 16.4747 -2.66409 1.46912
upperback 1.14831 -3.30887 1.85723
thorax -7.97443 -1.70182 1.93301
lowerneck -12.5261 -7.53423 -8.66357
upperneck 7.63753 -9.09203 4.26669
head 4.91168 -4.46487 1.95299
rclavicle 3.18055e-015 -2.62396e-014
rhumerus -47.035 -14.1943 -58.495
rradius 40.522
rwrist -2.29596
rhand -26.4248 -12.8418
rfingers 7.12502
rthumb 0.135439 -42.8215
lclavicle 3.18055e-015 -2.62396e-014
lhumerus -44.931 16.7701 68.9185
lradius 67.5986
lwrist -8.36519
lhand -19.9408 -2.78662
lfingers 7.12502
lthumb 6.39693 27.0968
rfemur -23.9626 6.14002 10.3065
rtibia 33.09
rfoot -6.70077 -3.66436
rtoes -24.4909
lfemur -28.3329 -7.57818 -20.0453
ltibia 39.5675
lfoot -19.0087 -21.2635
ltoes -7.25729
201
root 2.67279 17.8428 -25.551 -177.144 -25.4694 -182.401
lowerback 16.2239 -2.56059 1.47871
upperback 1.08208 -3.16675 1.91194
thorax -7.90661 -1.63155 1.94181
lowerneck -12.588 -7.40124 -8.49667
upperneck 7.75817 -8.92635 4.15347
head 4.93608 -4.38546 1.90461
rclavicle -6.24184e-014 1.43125e-014
rhumerus -46.7431 -14.1924 -58.7073
rradius 40.9025
rwrist -2.58251
rhand -26.4751 -12.9318
rfingers 7.12502
rthumb 0.0868388 -42.9115
lclavicle -6.24184e-014 1.43125e-014
lhumerus -45.1933 16.9288 69.3606
lradius 66.6754
lwrist -8.59971
lhand -19.9236 -2.91425
lfingers 7.12502
lthumb 6.4136 26.9686
rfemur -23.6926 6.47629 10.6622
rtibia 32.8494
rfoot -6.84068 -3.11872
rtoes -24.5814
lfemur -27.9174 -8.17284 -19.7363
ltibia 39.4388
lfoot -18.1852 -20.6688
ltoes -5.14319
